<svg width="81" height="77" viewBox="0 0 81 77" fill="none" xmlns="http://www.w3.org/2000/svg">
<path d="M77.9968 21.8652H65.3675L72.9047 12.8003C73.7571 11.7534 73.6898 10.183 72.7252 9.23133L69.4726 6.09051C68.5304 5.16258 67.0499 5.2341 66.1975 6.2334C66.175 6.2572 66.175 6.25724 66.1526 6.28104L53.1644 21.8652H30.5752C29.9023 21.889 29.3863 22.484 29.4312 23.1978C29.4536 23.864 29.9471 24.3874 30.5752 24.4112H51.0782L45.8067 30.7402C45.3804 31.2399 45.1786 31.9058 45.201 32.572C45.201 32.6434 45.2234 32.7388 45.2234 32.8102L43.4064 38.0921C43.1372 38.8773 43.3391 39.7575 43.9223 40.3047C44.4832 40.8519 45.3356 40.9947 46.0085 40.614L50.6969 38.0921H50.7866H50.9212C51.5493 38.0683 52.1325 37.7591 52.5363 37.2594L63.2589 24.3874H77.9968C78.2211 24.3874 78.4006 24.5776 78.4006 24.8155V73.9955C78.4006 74.2335 78.2211 74.4239 78.0192 74.4239H69.4053C68.7323 74.4477 68.2164 75.0424 68.2612 75.7562C68.2837 76.4224 68.7772 76.9459 69.4053 76.9696H77.9968C79.5222 76.9459 80.7559 75.6134 80.7559 73.9955V24.8155C80.7784 23.2214 79.5446 21.889 77.9968 21.8652ZM71.155 11.1111L69.7417 12.8003L66.534 9.68326L67.9472 7.99406L71.155 11.1111ZM64.9413 11.5868L65.6591 12.3007L48.2966 33.1668L47.5788 32.4532L64.9413 11.5868ZM46.9058 35.2368L48.2742 36.5694L46.0534 37.759L46.9058 35.2368ZM50.7866 35.5699L50.0688 34.8563L67.4312 13.9899L68.1491 14.7035L50.7866 35.5699Z" fill="#E6A859"/>
<path d="M64.2457 74.4481H11.0369C6.21398 74.4005 2.33323 70.2128 2.3781 65.0973V64.4311C2.35567 59.3156 6.21398 55.152 11.0369 55.0806H13.4595C14.9849 55.0568 16.2187 53.7244 16.2187 52.1065V24.4592H25.4383C26.1112 24.4592 26.6496 23.888 26.6496 23.1743C26.6496 22.4605 26.1112 21.8893 25.4383 21.8893H16.2187V17.4639C16.2187 16.7739 15.6803 16.2028 15.0298 16.2028C14.3793 16.2028 13.8409 16.7739 13.8409 17.4639V52.0827C13.8409 52.3206 13.6614 52.5108 13.4371 52.5108H11.0144C7.6272 52.5108 4.41941 54.2002 2.35566 57.0553V11.8964C2.3108 6.78098 6.19155 2.5933 11.0144 2.54571H13.4371C13.6614 2.54571 13.8409 2.73618 13.8409 2.97411V11.9203C13.8409 12.6103 14.3793 13.1814 15.0298 13.1814C15.6803 13.1814 16.2187 12.6103 16.2187 11.9203V2.97411C16.2187 1.3562 14.9849 0.0237929 13.4595 0H11.0369C4.89049 0.0713787 -0.0445607 5.37719 0.000303482 11.8964V65.0973C-0.0445607 71.6166 4.89049 76.9224 11.0369 76.9938H64.2457C64.9187 76.9938 65.4571 76.4227 65.4571 75.7089C65.4571 75.0189 64.9187 74.4481 64.2457 74.4481Z" fill="#E6A859"/>
<path d="M63.1241 35.6894C58.3236 35.6894 54.3307 39.6627 54.0391 44.7543H48.5881C47.9375 44.7543 47.3992 45.3254 47.3992 46.0154V60.3388C47.3992 61.0288 47.9375 61.5999 48.5881 61.5999H62.0922C62.7427 61.5999 63.2811 61.0288 63.2811 60.3388V54.9854C68.3059 54.9378 72.3437 50.5838 72.2988 45.2542C72.2764 39.9008 68.1489 35.6418 63.1241 35.6894ZM60.9482 52.0828C58.862 51.3214 57.2693 49.513 56.6636 47.2527H60.9482V52.0828ZM49.7994 59.0777V47.2527H54.2185C54.9364 50.893 57.5385 53.7958 60.9482 54.6761V59.0539H49.7994V59.0777ZM63.3036 52.4632V46.0154C63.3036 45.3254 62.7652 44.7543 62.1146 44.7543H56.4169C56.7085 40.8285 59.9612 37.902 63.6625 38.2113C67.3638 38.5206 70.1229 41.9708 69.8313 45.8967C69.5621 49.537 66.7357 52.3681 63.3036 52.4632Z" fill="#E6A859"/>
<path d="M67.5209 55.913C66.8704 55.913 66.332 56.4841 66.332 57.1741C66.332 57.8641 66.8704 58.4349 67.5209 58.4349H70.1454C70.7959 58.4349 71.3343 57.8641 71.3343 57.1741C71.3343 56.4841 70.7959 55.913 70.1454 55.913H67.5209Z" fill="#E6A859"/>
<path d="M71.3343 60.4578C71.3343 59.7678 70.7959 59.1967 70.1454 59.1967H67.5209C66.8704 59.1967 66.332 59.7678 66.332 60.4578C66.332 61.1478 66.8704 61.7186 67.5209 61.7186H70.1454C70.8183 61.7186 71.3343 61.1478 71.3343 60.4578Z" fill="#E6A859"/>
<path d="M21.625 34.8567H23.5093C24.1598 34.8567 24.6982 34.2856 24.6982 33.5956C24.6982 32.9056 24.1598 32.3345 23.5093 32.3345H21.625C20.9744 32.3345 20.436 32.9056 20.436 33.5956C20.436 34.3094 20.9744 34.8567 21.625 34.8567Z" fill="#E6A859"/>
<path d="M21.625 38.5683H30.7549C31.4054 38.5683 31.9438 37.9972 31.9438 37.3072C31.9438 36.6173 31.4054 36.0464 30.7549 36.0464H21.625C20.9744 36.0464 20.436 36.6173 20.436 37.3072C20.436 38.021 20.9744 38.5683 21.625 38.5683Z" fill="#E6A859"/>
<path d="M28.848 34.8567H30.7323C31.3828 34.8567 31.9211 34.2856 31.9211 33.5956C31.9211 32.9056 31.3828 32.3345 30.7323 32.3345H28.848C28.1975 32.3345 27.6592 32.9056 27.6592 33.5956C27.6816 34.3094 28.1975 34.8567 28.848 34.8567Z" fill="#E6A859"/>
<path d="M38.0002 32.358H36.1159C35.4654 32.358 34.927 32.9291 34.927 33.6191C34.927 34.3091 35.4654 34.8802 36.1159 34.8802H38.0002C38.6508 34.8802 39.1891 34.3091 39.1891 33.6191C39.1667 32.9053 38.6508 32.358 38.0002 32.358Z" fill="#E6A859"/>
<path d="M21.625 42.2562H30.7549C31.4054 42.2562 31.9438 41.6851 31.9438 40.9951C31.9438 40.3051 31.4054 39.734 30.7549 39.734H21.625C20.9744 39.734 20.436 40.3051 20.436 40.9951C20.436 41.7089 20.9744 42.2562 21.625 42.2562Z" fill="#E6A859"/>
<path d="M20.436 44.7068C20.436 45.3968 20.9744 45.9676 21.6249 45.9676H36.0936C36.7441 45.9676 37.2825 45.3968 37.2825 44.7068C37.2825 44.0168 36.7441 43.4457 36.0936 43.4457H21.6249C20.9744 43.4457 20.436 43.993 20.436 44.7068Z" fill="#E6A859"/>
<path d="M39.1669 48.3707C39.1669 47.6807 38.6285 47.1096 37.978 47.1096H21.6025C20.9519 47.1096 20.4136 47.6807 20.4136 48.3707C20.4136 49.0607 20.9519 49.6318 21.6025 49.6318H37.978C38.6509 49.6318 39.1669 49.0607 39.1669 48.3707Z" fill="#E6A859"/>
<path d="M26.0665 54.367C26.0665 53.677 25.5282 53.1059 24.8776 53.1059H21.625C20.9744 53.1059 20.436 53.677 20.436 54.367V57.8168C20.436 58.5068 20.9744 59.0779 21.625 59.0779H24.8776C25.5282 59.0779 26.0665 58.5068 26.0665 57.8168V54.367ZM23.6887 56.5798H22.7914V55.6281H23.6887V56.5798Z" fill="#E6A859"/>
<path d="M33.8951 54.367C33.8951 53.677 33.3567 53.1059 32.7062 53.1059H29.4537C28.8032 53.1059 28.2649 53.677 28.2649 54.367V57.8168C28.2649 58.5068 28.8032 59.0779 29.4537 59.0779H32.7062C33.3567 59.0779 33.8951 58.5068 33.8951 57.8168V54.367ZM31.5174 56.5798H30.6201V55.6281H31.5174V56.5798Z" fill="#E6A859"/>
<path d="M41.7016 54.367C41.7016 53.677 41.1632 53.1059 40.5127 53.1059H37.2377C36.5872 53.1059 36.0488 53.677 36.0488 54.367V57.8168C36.0488 58.5068 36.5872 59.0779 37.2377 59.0779H40.4903C41.1408 59.0779 41.6791 58.5068 41.6791 57.8168L41.7016 54.367ZM39.3463 56.5798H38.449V55.6281H39.3463V56.5798Z" fill="#E6A859"/>
<path d="M24.8776 62.2424H21.625C20.9744 62.2424 20.436 62.8132 20.436 63.5032V66.9533C20.436 67.6433 20.9744 68.2144 21.625 68.2144H24.8776C25.5282 68.2144 26.0665 67.6433 26.0665 66.9533V63.5032C26.0665 62.7894 25.5282 62.2424 24.8776 62.2424ZM23.6887 65.6922H22.7914V64.7404H23.6887V65.6922Z" fill="#E6A859"/>
<path d="M32.7062 62.2424H29.4537C28.8032 62.2424 28.2649 62.8132 28.2649 63.5032V66.9533C28.2649 67.6433 28.8032 68.2144 29.4537 68.2144H32.7062C33.3567 68.2144 33.8951 67.6433 33.8951 66.9533V63.5032C33.8951 62.7894 33.3567 62.2424 32.7062 62.2424ZM31.5174 65.6922H30.6201V64.7404H31.5174V65.6922Z" fill="#E6A859"/>
<path d="M37.2599 68.2144H40.5126C41.1631 68.2144 41.7014 67.6433 41.7014 66.9533V63.5032C41.7014 62.8132 41.1631 62.2424 40.5126 62.2424H37.2599C36.6094 62.2424 36.071 62.8132 36.071 63.5032V66.9533C36.071 67.6433 36.6094 68.2144 37.2599 68.2144ZM38.4488 64.7404H39.3461V65.6922H38.4488V64.7404Z" fill="#E6A859"/>
</svg>
